<svg xmlns="http://www.w3.org/2000/svg" version="1.1" xmlns:xlink="http://www.w3.org/1999/xlink" xmlns:svgjs="http://svgjs.com/svgjs" width="1440" height="560" preserveAspectRatio="none" viewBox="0 0 1440 560"><g mask="url(&quot;#SvgjsMask1037&quot;)" fill="none"><path d="M720 904.22C883.76 911.63 1040.21 831.95 1152.54 712.54 1261.6 596.62 1312.53 439.07 1307.28 280 1302.18 126.22 1236.3-18.77 1124.85-124.85 1016.1-228.35 869.87-287.13 720-278.95 577.31-271.13 458.58-183.54 357.15-82.85 255.26 18.35 163.17 136.53 157.05 280 150.75 428.63 225.32 564.56 324.95 675.05 430.94 792.58 561.94 897.04 720 904.22" fill="rgba(7, 8, 16, 1)"></path><path d="M720 741.38C841.04 746.85 956.67 687.97 1039.7 599.7 1120.32 514.02 1157.95 397.57 1154.08 280 1150.3 166.34 1101.62 59.17 1019.23-19.23 938.86-95.73 830.77-139.19 720-133.13 614.53-127.35 526.78-62.62 451.81 11.81 376.5 86.61 308.43 173.95 303.91 280 299.25 389.85 354.36 490.32 428.01 571.99 506.34 658.86 603.18 736.08 720 741.38" fill="rgba(47, 47, 49, 1)"></path><path d="M720 578.54C798.32 582.08 873.14 543.98 926.87 486.87 979.03 431.43 1003.38 356.08 1000.87 280 998.43 206.45 966.93 137.11 913.62 86.38 861.61 36.88 791.68 8.76 720 12.68 651.76 16.42 594.97 58.31 546.46 106.46 497.73 154.86 453.69 211.38 450.76 280 447.75 351.08 483.41 416.09 531.06 468.94 581.75 525.15 644.41 575.11 720 578.54" fill="rgba(71, 71, 73, 1)"></path><path d="M720 415.7C755.6 417.31 789.61 399.99 814.03 374.03 837.74 348.83 848.81 314.58 847.67 280 846.56 246.57 832.24 215.05 808.01 191.99 784.37 169.49 752.58 156.71 720 158.49 688.98 160.19 663.17 179.23 641.12 201.12 618.97 223.12 598.95 248.81 597.62 280 596.25 312.31 612.46 341.86 634.12 365.88 657.16 391.43 685.64 414.14 720 415.7" fill="rgba(54, 53, 53, 1)"></path></g><defs><mask id="SvgjsMask1037"><rect width="1440" height="560" fill="#ffffff"></rect></mask></defs></svg>