<svg xmlns="http://www.w3.org/2000/svg" version="1.1" xmlns:xlink="http://www.w3.org/1999/xlink" xmlns:svgjs="http://svgjs.com/svgjs" width="1440" height="560" preserveAspectRatio="none" viewBox="0 0 1440 560"><g mask="url(&quot;#SvgjsMask1025&quot;)" fill="none"><path d="M720 870.13C883.02 869.31 1051.34 841.84 1168.73 728.73 1287.92 613.91 1345.74 444.96 1332.54 280 1320.16 125.9 1216.94 1.38 1102.12-102.12 994.48-199.18 864.58-261.93 720-272.14 563-283.22 396.53-265.74 279.87-160.13 158.71-50.42 112.66 116.56 110.22 280 107.79 446.2 147.25 617.73 266.67 733.33 384.57 847.46 555.92 870.96 720 870.13" fill="rgba(7, 8, 16, 1)"></path><path d="M720 716.19C840.5 715.57 964.9 695.28 1051.67 611.67 1139.76 526.81 1182.5 401.92 1172.74 280 1163.6 166.1 1087.3 74.06 1002.44-2.44 922.88-74.18 826.86-120.55 720-128.1 603.96-136.3 480.91-123.38 394.69-45.31 305.13 35.78 271.1 159.2 269.3 280 267.49 402.84 296.67 529.63 384.93 615.07 472.07 699.42 598.72 716.8 720 716.19" fill="rgba(80, 80, 84, 1)"></path><path d="M720 562.24C797.97 561.84 878.47 548.71 934.61 494.61 991.61 439.7 1019.27 358.89 1012.95 280 1007.03 206.3 957.67 146.75 902.75 97.25 851.27 50.83 789.15 20.82 720 15.93 644.91 10.63 565.3 18.99 509.5 69.5 451.56 121.97 429.53 201.83 428.37 280 427.2 359.49 446.08 441.52 503.19 496.81 559.58 551.39 641.53 562.63 720 562.24" fill="rgba(99, 99, 107, 1)"></path><path d="M720 408.29C755.44 408.11 792.03 402.14 817.55 377.55 843.46 352.59 856.03 315.86 853.16 280 850.47 246.5 828.03 219.43 803.07 196.93 779.67 175.83 751.43 162.19 720 159.97 685.87 157.56 649.68 161.36 624.32 184.32 597.98 208.17 587.97 244.47 587.44 280 586.91 316.13 595.49 353.42 621.45 378.55 647.08 403.36 684.33 408.47 720 408.29" fill="rgba(54, 53, 53, 1)"></path></g><defs><mask id="SvgjsMask1025"><rect width="1440" height="560" fill="#ffffff"></rect></mask></defs></svg>