<svg width="47" height="52" viewBox="0 0 47 52" fill="none" xmlns="http://www.w3.org/2000/svg">
<path d="M20.5634 25.7232L1.01344 8.19199C-0.337812 6.98027 -0.337812 5.0209 1.01344 3.82207L4.26219 0.908789C5.61344 -0.30293 7.79844 -0.30293 9.13531 0.908789L22.9928 13.3354L36.8503 0.908789C38.2016 -0.30293 40.3866 -0.30293 41.7234 0.908789L45.0009 3.80918C46.3522 5.0209 46.3522 6.98027 45.0009 8.1791L25.4509 25.7104C24.0997 26.935 21.9147 26.935 20.5634 25.7232ZM25.4509 50.4732L45.0009 32.942C46.3522 31.7303 46.3522 29.7709 45.0009 28.5721L41.7522 25.6588C40.4009 24.4471 38.2159 24.4471 36.8791 25.6588L23.0072 38.0725L9.14969 25.6459C7.79844 24.4342 5.61344 24.4342 4.27656 25.6459L1.01344 28.5592C-0.337812 29.7709 -0.337812 31.7303 1.01344 32.9291L20.5634 50.4604C21.9147 51.685 24.0997 51.685 25.4509 50.4732Z" fill="url(#paint0_linear)"/>
<defs>
<linearGradient id="paint0_linear" x1="23.0072" y1="0" x2="23.0072" y2="51.3804" gradientUnits="userSpaceOnUse">
<stop stop-color="#D7AD9D"/>
<stop offset="0.994792" stop-color="#353535" stop-opacity="0.85"/>
</linearGradient>
</defs>
</svg>
